<svg xmlns="http://www.w3.org/2000/svg" width="188" height="39" viewBox="0 0 188 39">
    <path fill="#FFF" d="M21.202.567l.127.12 16.96 17.205c.86.873.9 2.262.117 3.181l-.118.128L21.33 38.315c-.864.872-2.239.911-3.15.119l-.127-.119L1.093 21.201c-.86-.872-.9-2.261-.117-3.18l.117-.129L18.05.686c.865-.873 2.24-.913 3.152-.119zm74.919 4.85c.256.001.5.106.68.29.18.185.279.433.277.692v8.64c0 .068.042.129.106.15.063.022.134 0 .174-.055 1.698-2.331 4.637-3.806 8.369-3.806 5.987-.002 9.735 3.947 9.735 9.89 0 5.946-3.748 9.857-9.735 9.857-3.732 0-6.671-1.48-8.37-3.806-.04-.055-.11-.077-.174-.055-.064.022-.107.084-.105.153v2.06c.002.258-.098.507-.277.691-.18.185-.424.29-.68.291h-.783c-.256-.002-.5-.106-.68-.29-.18-.185-.279-.434-.277-.692V6.399c-.002-.259.098-.507.277-.692.18-.184.424-.289.68-.29h.783zm32.812 5.873c2.745.024 5.43.813 7.76 2.281.298.189.496.502.542.854.045.352-.067.707-.307.966l-.06.07c-.395.428-1.044.491-1.513.147-1.599-1.161-3.739-2.013-6.542-2.041-2.704-.034-6.386.635-6.386 3.076 0 2.274 3.193 2.71 7.07 3.011 5.334.436 9.244 1.806 9.244 5.353 0 3.278-3.226 5.92-9.286 5.92-3.34.04-6.6-1.024-9.29-3.028-.28-.21-.454-.534-.474-.886-.018-.308.083-.609.278-.84l.09-.096c.412-.394 1.046-.426 1.495-.076 2.145 1.641 4.654 2.65 7.965 2.65 3.682 0 6.584-1.17 6.584-3.378 0-2.274-2.64-2.876-7.17-3.278-4.703-.4-9.156-1.44-9.156-5.184 0-3.568 3.91-5.521 9.156-5.521zm24.623 0c6.65 0 10.581 3.742 10.581 9.649 0 5.907-3.932 9.615-10.581 9.615-6.65 0-10.582-3.708-10.582-9.615s3.932-9.649 10.582-9.649zm-86.367.707c.532.001 1.008.338 1.192.844l5.196 14.019c.022.062.08.104.145.104.065 0 .124-.042.145-.104l5.008-14.002c.166-.47.583-.798 1.066-.851l.134-.008c.422.004.815.217 1.054.57.238.352.291.8.142 1.2l-5.58 15.3c-.267.743-.935 1.255-1.703 1.323l-.166.008c-.834-.003-1.58-.53-1.867-1.323L66.904 15.39c-.023-.06-.08-.1-.145-.1-.064 0-.121.04-.144.1l-5.12 13.69c-.27.738-.936 1.245-1.701 1.311l-.165.008c-.843 0-1.595-.534-1.882-1.335l-5.58-15.296c-.148-.4-.095-.847.142-1.2.238-.352.631-.565 1.053-.57h.068c.538.003 1.017.346 1.197.859l5.009 14.002c.02.062.079.104.144.104.066 0 .124-.042.145-.104l5.199-14.019c.183-.506.658-.842 1.19-.844h.875zm20.478.002c.747.01 1.346.629 1.34 1.384v15.632c.006.711-.524 1.3-1.21 1.377l-.13.008c-.36-.003-.704-.15-.957-.41s-.393-.61-.39-.975V13.383c-.005-.713.529-1.304 1.217-1.377l.13-.007zm91.708-.673c5.436 0 8.042 3.568 8.042 8.488v9.165c.001.265-.1.52-.285.709-.184.189-.434.296-.696.298h-.677c-.262-.002-.513-.11-.696-.298-.184-.189-.287-.444-.285-.709V17.77c.018-1.673-1.081-3.148-2.676-3.592-4.743-1.247-8.853.114-10.983 4.282-.075.147-.113.31-.11.476v10.041c.002.265-.1.52-.284.71-.185.188-.435.295-.697.296h-.678c-.544-.004-.983-.453-.98-1.004V12.991c-.002-.265.1-.52.284-.709.184-.188.434-.295.696-.297h.678c.262 0 .512.108.697.297.184.188.286.444.283.709v2.208c-.002.067.04.129.104.15.064.02.134-.004.171-.06 1.686-2.455 4.53-3.963 8.092-3.963zm-74.34 2.464c-3.32 0-6.113 1.213-7.957 4.49v5.84c1.841 3.275 4.637 4.49 7.957 4.49 4.934 0 7.697-2.666 7.697-7.393 0-4.758-2.763-7.427-7.697-7.427zm48.52-.104c-4.54 0-7.929 2.397-7.929 7.253 0 4.855 3.389 7.22 7.93 7.22 4.54 0 7.929-2.396 7.929-7.22 0-4.856-3.389-7.253-7.93-7.253zM19.283 2.448l-.088.073L3.45 18.533l-.052.068-.043.075 7.127 3.607c.241.123.526.097.74-.06l.087-.074 6.861-6.946c.799-.807 2.066-.848 2.91-.121l.13.121 6.862 6.944c.191.192.47.257.721.177l.106-.044 7.117-3.604-.043-.075-.052-.068L20.187 2.52c-.25-.242-.63-.267-.905-.073zm68.385 3.137c1.084 0 1.91.776 1.91 1.79 0 1.013-.823 1.788-1.91 1.788-1.086 0-1.907-.809-1.907-1.789 0-1.013.823-1.789 1.907-1.789z"/>
</svg>
