<svg xmlns="http://www.w3.org/2000/svg" width="234" height="21" viewBox="0 0 234 21">
    <g fill="#FFF" fill-rule="evenodd">
        <path fill-rule="nonzero" d="M4.342 21L4.342 7.911 9.698 21 13.403 21 18.759 7.742 18.759 21 23.246 21 23.246 1 16.964 1 11.609 14.512 5.963 1 0 1 0 21zM37.533 21L37.533 12.65 44.471 1 39.567 1 35.472 8.419 31.432 1 26.278 1 33.132 12.65 33.132 21z"/>
        <path d="M90.457 0c5.861 0 10.613 4.701 10.613 10.5S96.318 21 90.457 21c-5.86 0-10.612-4.701-10.612-10.5S84.596 0 90.457 0zm0 4.824c-3.168 0-5.736 2.541-5.736 5.676 0 3.135 2.568 5.676 5.736 5.676 3.168 0 5.737-2.541 5.737-5.676 0-3.135-2.569-5.676-5.737-5.676zM66.2 0c5.212 0 9.546 3.716 10.443 8.616.111.612.17 1.241.17 1.884 0 .43-.026.856-.077 1.273-.022.173-.047.347-.076.52l.06-.398c-.02.146-.042.292-.068.436l.03-.193-.022.156-.003-.001-.005.038c-.86 4.835-5.062 8.53-10.162 8.665L66.2 21c-5.86 0-10.612-4.701-10.612-10.5S60.34 0 66.201 0zm0 4.824c-3.168 0-5.736 2.541-5.736 5.676 0 3.135 2.568 5.676 5.737 5.676 2.534 0 4.685-1.627 5.444-3.882l5.012-.001.025-.155.038-.243.016-.122c.05-.424.076-.848.076-1.273 0-.599-.057-1.229-.17-1.89h-5.03c-.788-2.205-2.913-3.786-5.411-3.786z"/>
        <path fill-rule="nonzero" d="M115.001 21L122.294 1 117.564 1 112.805 15.076 107.99 1 103.091 1 110.412 21zM130.38 21L130.38 1 126.337 1 126.337 21zM144.071 1c6.321 0 10.565 3.836 10.565 10.014 0 6.178-4.244 9.986-10.595 9.986h-7.597V1zm-.208 4.203h-2.73v11.594h2.73c3.235 0 5.877-1.777 5.877-5.783s-2.642-5.81-5.877-5.81zM175.037 1c4.121 0 6.77 2.708 6.77 6.262 0 2.708-1.56 4.768-4.12 5.642L181.924 21h-5.122l-3.739-7.447h-1.648V21h-4.651V1zm-.883 3.865h-2.738v4.852h2.738c1.913 0 2.943-1.016 2.943-2.426 0-1.496-1.03-2.426-2.943-2.426zM191.021 21L191.021 1 186.979 1 186.979 21zM203.56 21c4.95 0 7.675-3.211 7.675-6.365 0-2.87-2.05-5.343-6.005-6.053l-2.783-.512c-1.436-.255-2.051-.966-2.051-1.932 0-1.108 1.113-2.16 2.842-2.16 2.519 0 3.31 1.592 3.456 2.53l4.16-1.137C210.415 3.012 208.452 0 203.267 0c-3.984 0-7.441 2.671-7.441 6.479 0 2.984 2.138 5.257 5.654 5.91l2.842.512c1.376.256 2.226.995 2.226 2.018 0 1.25-1.113 2.103-2.93 2.103-2.841 0-4.13-1.62-4.306-3.467l-4.248.994c.293 2.842 2.754 6.451 8.496 6.451zM219.87 21L219.87 15.64 222.195 13.13 227.745 21 233.471 21 225.421 9.66 233.442 1 227.397 1 219.87 9.406 219.87 1 215.278 1 215.278 21z"/>
    </g>
</svg>
