<svg xmlns="http://www.w3.org/2000/svg" xmlns:xlink="http://www.w3.org/1999/xlink" width="150" height="150" viewBox="0 0 150 150">
    <defs>
        <path id="prefix__a" d="M150 103.29c0 1.783 0 3.566-.01 5.352-.008 1.502-.027 3.003-.068 4.505-.09 3.269-.285 6.572-.874 9.805-.596 3.285-1.568 6.342-3.108 9.327-1.508 2.93-3.48 5.613-5.832 7.94-2.353 2.325-5.07 4.276-8.034 5.767-3.017 1.52-6.107 2.484-9.43 3.073-3.272.582-6.61.776-9.92.863-6.363.078-8.167.078-9.971.078H47.25c-6.933-.02-8.452-.036-9.971-.078-3.31-.087-6.648-.281-9.921-.863-3.323-.589-6.413-1.553-9.43-3.073-2.967-1.49-5.68-3.442-8.033-5.768-2.353-2.326-4.324-5.008-5.835-7.94-1.537-2.984-2.51-6.041-3.108-9.326-.589-3.233-.782-6.536-.871-9.805-.042-1.502-.06-3.003-.068-4.505C0 106.856 0 105.073 0 103.29V46.71c0-1.783 0-3.569.013-5.35.008-1.504.026-3.005.068-4.507.089-3.272.282-6.572.87-9.808.6-3.284 1.572-6.339 3.109-9.324 1.51-2.933 3.482-5.616 5.835-7.94 2.353-2.328 5.066-4.276 8.033-5.767 3.017-1.52 6.107-2.484 9.43-3.073 3.273-.582 6.611-.776 9.921-.863C43.642 0 45.446 0 47.249 0h54.024L82.03.008 102.753 0c6.93.02 8.45.036 9.97.078 3.31.087 6.649.281 9.922.863 3.322.589 6.412 1.553 9.43 3.073 2.964 1.49 5.68 3.44 8.033 5.768 2.353 2.323 4.324 5.006 5.832 7.94 1.54 2.984 2.512 6.039 3.108 9.323.589 3.236.785 6.536.874 9.808.041 1.502.06 3.003.068 4.507.01 1.781.01 3.567.01 5.35V103.29z"/>
        <path id="prefix__d" d="M47.976 62.872c7.906 0 14.316-6.41 14.316-14.315 0-7.907-6.41-14.316-14.316-14.316h-.007l.007-.007V10.253c20.941 0 37.917 16.976 37.917 37.917 0 20.94-16.976 37.916-37.917 37.916-20.94 0-37.916-16.782-37.916-37.723 0-.037 22.516-.002 23.563 0h.038c0 7.906 6.409 14.509 14.315 14.509z"/>
        <filter id="prefix__c" width="194.9%" height="194.9%" x="-47.5%" y="-47.5%" filterUnits="objectBoundingBox">
            <feOffset in="SourceAlpha" result="shadowOffsetOuter1"/>
            <feGaussianBlur in="shadowOffsetOuter1" result="shadowBlurOuter1" stdDeviation="12"/>
            <feColorMatrix in="shadowBlurOuter1" values="0 0 0 0 0.133333333 0 0 0 0 0.133333333 0 0 0 0 0.133333333 0 0 0 0.234183785 0"/>
        </filter>
    </defs>
    <g fill="none" fill-rule="evenodd">
        <mask id="prefix__b" fill="#fff">
            <use xlink:href="#prefix__a"/>
        </mask>
        <use fill="#6524FE" xlink:href="#prefix__a"/>
        <g mask="url(#prefix__b)">
            <g>
                <path fill="#EEF8FC" d="M67.746 62.872L97.5 106.205 68.874 106.205 39.646 62.872zM10.06 48.363H33.661V106.399H10.06z" transform="translate(26.25 22.5)"/>
                <g transform="translate(26.25 22.5)">
                    <use fill="#000" filter="url(#prefix__c)" xlink:href="#prefix__d"/>
                    <use fill="#EEF8FC" xlink:href="#prefix__d"/>
                </g>
                <path fill="#3FECBD" d="M21.28 42.56c11.752 0 21.28-9.528 21.28-21.28C42.56 9.527 33.032 0 21.28 0 9.527 0 0 9.24 0 20.992 0 32.745 9.527 42.56 21.28 42.56z" opacity=".2" transform="translate(26.25 22.5)"/>
                <path fill="#3FECBD" d="M21.28 35.595c7.906 0 14.315-6.409 14.315-14.315S29.186 6.964 21.28 6.964 6.964 13.18 6.964 21.086c0 7.907 6.41 14.51 14.316 14.51z" opacity=".5" transform="translate(26.25 22.5)"/>
                <path fill="#3FECBD" d="M21.28 30.565c5.128 0 9.285-4.157 9.285-9.285 0-5.129-4.157-9.286-9.285-9.286-5.129 0-9.286 4.032-9.286 9.16 0 5.129 4.157 9.411 9.286 9.411z" opacity=".7" transform="translate(26.25 22.5)"/>
            </g>
        </g>
    </g>
</svg>
