<svg xmlns="http://www.w3.org/2000/svg" xmlns:xlink="http://www.w3.org/1999/xlink" width="24" height="24" viewBox="0 0 24 24">
    <defs>
        <filter id="prefix__a" width="113.6%" height="137.8%" x="-6.8%" y="-18.9%" filterUnits="objectBoundingBox">
            <feOffset in="SourceAlpha" result="shadowOffsetOuter1"/>
            <feGaussianBlur in="shadowOffsetOuter1" result="shadowBlurOuter1" stdDeviation="8"/>
            <feColorMatrix in="shadowBlurOuter1" result="shadowMatrixOuter1" values="0 0 0 0 0.749019608 0 0 0 0 0.835294118 0 0 0 0 0.874509804 0 0 0 0.5 0"/>
            <feMerge>
                <feMergeNode in="shadowMatrixOuter1"/>
                <feMergeNode in="SourceGraphic"/>
            </feMerge>
        </filter>
        <path id="prefix__b" d="M20.001 1.924c-.736.327-1.527.547-2.357.646.848-.508 1.498-1.312 1.804-2.27-.792.47-1.67.812-2.606.996C16.093.498 15.027 0 13.847 0c-2.266 0-4.103 1.838-4.103 4.103 0 .322.037.636.106.935C6.44 4.867 3.417 3.233 1.392.75 1.04 1.356.838 2.06.838 2.814c0 1.423.724 2.68 1.824 3.415-.672-.022-1.305-.207-1.858-.513v.051c0 1.989 1.414 3.647 3.291 4.023-.343.094-.706.144-1.081.144-.264 0-.522-.026-.772-.073.523 1.63 2.038 2.817 3.834 2.85-1.404 1.1-3.174 1.757-5.097 1.757-.33 0-.657-.02-.979-.058 1.816 1.164 3.972 1.843 6.29 1.843 7.548 0 11.674-6.252 11.674-11.674 0-.178-.004-.355-.011-.531.802-.58 1.498-1.302 2.048-2.124z"/>
    </defs>
    <g fill="none" fill-rule="evenodd" filter="url(#prefix__a)" transform="translate(-272 -102)">
        <g transform="translate(274 106)">
            <mask id="prefix__c" fill="#fff">
                <use xlink:href="#prefix__b"/>
            </mask>
            <use fill="#000" fill-rule="nonzero" xlink:href="#prefix__b"/>
            <g fill="#233064" mask="url(#prefix__c)">
                <path d="M0 28.235L28.235 28.235 28.235 0 0 0z" transform="translate(-3.53 -5.882)"/>
            </g>
        </g>
    </g>
</svg>
